<?xml version="1.0" standalone="no"?><!DOCTYPE svg PUBLIC "-//W3C//DTD SVG 1.1//EN" "http://www.w3.org/Graphics/SVG/1.1/DTD/svg11.dtd"><svg t="1678613042381" class="icon" viewBox="0 0 1024 1024" version="1.1" xmlns="http://www.w3.org/2000/svg" p-id="1659" xmlns:xlink="http://www.w3.org/1999/xlink" width="130" height="130"><path d="M512 194.102c-175.299 0-317.899 142.6-317.899 317.898S336.701 829.898 512 829.898c175.298 0 317.898-142.6 317.898-317.898S687.299 194.102 512 194.102z m39.057 366.039H449.33v136.241h-45.416V333.067h147.143c67.67 0 102.729 45.87 105.363 109.632-3.908 68.938-39.059 117.442-105.363 117.442z" p-id="1660"></path><path d="M535.436 378.482H449.33v136.242h84.195c49.412 0 74.117-27.155 74.117-70.028 0.001-39.057-24.068-66.214-72.206-66.214z" p-id="1661"></path><path d="M512 0C229.23 0 0 229.23 0 512s229.23 512 512 512 512-229.23 512-512S794.77 0 512 0z m0 875.313c-200.368 0-363.314-162.945-363.314-363.313 0-200.367 162.947-363.313 363.314-363.313 200.367 0 363.314 162.946 363.314 363.313 0 200.368-162.947 363.313-363.314 363.313z" p-id="1662"></path></svg>