<?xml version="1.0" standalone="no"?><!DOCTYPE svg PUBLIC "-//W3C//DTD SVG 1.1//EN" "http://www.w3.org/Graphics/SVG/1.1/DTD/svg11.dtd"><svg t="1679120524092" class="icon" viewBox="0 0 1024 1024" version="1.1" xmlns="http://www.w3.org/2000/svg" p-id="4549" xmlns:xlink="http://www.w3.org/1999/xlink" width="64" height="64"><path d="M512 64C264.96 64 64 264.96 64 512s200.96 448 448 448 448-200.96 448-448S759.04 64 512 64z m0 832C300.256 896 128 723.744 128 512S300.256 128 512 128s384 172.256 384 384-172.256 384-384 384z" p-id="4550"></path><path d="M793.408 448H800a32 32 0 1 0 0-64h-46.464l-22.176-75.104C720.224 278.752 686.464 256 652.864 256h-288.672c-33.632 0-67.392 22.752-79.168 54.944L263.488 384H224a32 32 0 0 0 0 64h6.56A64.032 64.032 0 0 0 192 506.656v192h34.656v13.344a32 32 0 1 0 64 0v-13.344h448v13.344a32 32 0 1 0 64 0v-13.344H832v-192A64 64 0 0 0 793.408 448zM256 634.656v-128h512v128H256zM364.192 320h288.672c7.776 0 16.864 6.816 17.792 9.056l33.504 113.632H312.864l3.872-13.088c0.864-1.792 1.184-3.776 1.696-5.728l27.328-92.8c1.568-4.288 10.624-11.072 18.432-11.072z" p-id="4551"></path><path d="M576 550.656h-128a32 32 0 1 0 0 64h128a32 32 0 1 0 0-64z" p-id="4552"></path></svg>