<?xml version="1.0" standalone="no"?><!DOCTYPE svg PUBLIC "-//W3C//DTD SVG 1.1//EN" "http://www.w3.org/Graphics/SVG/1.1/DTD/svg11.dtd"><svg t="1678613493369" class="icon" viewBox="0 0 1024 1024" version="1.1" xmlns="http://www.w3.org/2000/svg" p-id="15111" xmlns:xlink="http://www.w3.org/1999/xlink" width="130" height="130"><path d="M254.464 668.672c-60.928 0-110.592 49.664-110.592 110.592 0 60.928 49.664 110.592 110.592 110.592 60.928 0 110.592-49.664 110.592-110.592-0.512-61.44-49.664-110.592-110.592-110.592z" p-id="15112"></path><path d="M850.944 487.936h-20.992l-194.56-206.336-0.512-0.512c-24.064-24.576-57.344-38.4-91.648-37.888h-245.76c-43.008 0-82.944 22.016-105.984 58.368l-1.024 1.536-84.48 184.832h-50.176c-28.16 0-50.688 22.528-50.688 50.688v135.168c0 60.416 48.128 110.08 108.032 112.64v-7.168c0-77.824 62.976-141.312 141.312-141.312s141.312 62.976 141.312 141.312v7.168h262.144v-7.168c1.536-77.824 66.048-139.776 144.384-138.24 75.776 1.536 136.704 62.464 138.24 138.24v7.168h34.304c23.552 0 43.008-19.456 43.008-43.008v-90.112c-0.512-91.648-75.264-165.376-166.912-165.376z m-677.376 0L244.736 332.8c11.776-17.408 31.744-28.16 52.736-28.16H404.48v183.296H173.568z m292.352 0V304.64h76.8c17.92 0 35.328 7.168 48.128 19.968l154.624 163.328H465.92z" p-id="15113"></path><path d="M798.72 668.672c-60.928 0-110.592 49.664-110.592 110.592 0 60.928 49.664 110.592 110.592 110.592 60.928 0 110.592-49.664 110.592-110.592 0-61.44-49.664-110.592-110.592-110.592z" p-id="15114"></path></svg>