<svg xmlns="http://www.w3.org/2000/svg" viewBox="0 0 64 64" x="0px" y="0px"><title>parking</title><g><path d="M25.1021,52.7861A1,1,0,0,0,24.125,52H11.875a1,1,0,0,0-.9771.7861l-.875,4A1.0006,1.0006,0,0,0,11,58H25a1.0006,1.0006,0,0,0,.9771-1.2139Z"></path><path d="M21,48V34H15V48a2.0059,2.0059,0,0,0-2,2H23A2.0059,2.0059,0,0,0,21,48Z"></path><path d="M18,16H17v2h1a1,1,0,0,0,0-2Z"></path><path d="M12,12V26H24.0015L24,12Zm6,8H17v3a1,1,0,0,1-2,0V15a1,1,0,0,1,1-1h2a3,3,0,0,1,0,6Z"></path><path d="M28,6H8A2.002,2.002,0,0,0,6,8V30a2.002,2.002,0,0,0,2,2H28a2.002,2.002,0,0,0,2-2V8A2.002,2.002,0,0,0,28,6ZM26,26a2.002,2.002,0,0,1-2,2H12a2.002,2.002,0,0,1-2-2V12a2.002,2.002,0,0,1,2-2H24a2.002,2.002,0,0,1,2,2Z"></path><path d="M38,55v1a2.0059,2.0059,0,0,1-2,2H32a2.0059,2.0059,0,0,1-2-2V55Z"></path><path d="M56,55v1a2.0059,2.0059,0,0,1-2,2H50a2.0059,2.0059,0,0,1-2-2V55Z"></path><path d="M54.88,39H31.12l.05-.41.32-2.52.41-3.32A1.9972,1.9972,0,0,1,33.88,31H52.12a1.9972,1.9972,0,0,1,1.98,1.75l.41,3.32.32,2.52Z"></path><path d="M56,41H30a2.002,2.002,0,0,0-2,2v8a2.002,2.002,0,0,0,2,2H56a2.0023,2.0023,0,0,0,2-2V43A2.0023,2.0023,0,0,0,56,41ZM34,49a2,2,0,1,1,2-2A2.002,2.002,0,0,1,34,49Zm13-1H39a1,1,0,0,1,0-2h8a1,1,0,0,1,0,2Zm5,1a2,2,0,1,1,2-2A2.0023,2.0023,0,0,1,52,49Z"></path><path d="M34,39H31.58l-.41-.41L29.59,37H28a1,1,0,0,1,0-2h2a1.0327,1.0327,0,0,1,.71.29l.78.78,2.22,2.22A1.0068,1.0068,0,0,1,34,39Z"></path><path d="M59,36a1.0029,1.0029,0,0,1-1,1H56.41l-1.58,1.59-.41.41H52a1.0068,1.0068,0,0,1,.29-.71l2.22-2.22.78-.78A1.0327,1.0327,0,0,1,56,35h2A1.0029,1.0029,0,0,1,59,36Z"></path></g></svg>